<svg t="1704347596676" class="icon" viewBox="0 0 1024 1024" version="1.1" xmlns="http://www.w3.org/2000/svg" p-id="1026" width="200" height="200"><path d="M793.6 0H230.4A230.4 230.4 0 0 0 0 230.4v563.2a230.4 230.4 0 0 0 230.4 230.4h563.2a230.4 230.4 0 0 0 230.4-230.4V230.4a230.4 230.4 0 0 0-230.4-230.4z m71.36 353.408l-381.184 381.12-1.536 1.408-1.664 1.472-1.92 1.408-1.792 1.28-1.984 1.216-1.856 1.088-2.112 1.024-1.92 0.896-2.24 0.832-1.92 0.704-2.304 0.576-1.92 0.448-2.432 0.384H447.552l-2.496-0.32h-1.792l-2.496-0.576-1.728-0.448-2.496-0.832-1.664-0.576-2.432-1.152-1.6-0.768-2.432-1.408-1.472-0.832c-0.896-0.576-1.728-1.216-2.56-1.856l-1.152-0.832a45.696 45.696 0 0 1-3.456-3.072L217.6 532.352a45.184 45.184 0 0 1 0.512-64.448 46.272 46.272 0 0 1 64.576 1.664L451.84 638.656l349.184-349.184a45.184 45.184 0 1 1 64 64z" fill="#6D28D9" p-id="1027" data-spm-anchor-id="a313x.collections_detail.0.i3.68193a81xeayoq" class="selected"></path><path d="M801.024 289.472L451.84 638.656 282.752 469.568a46.272 46.272 0 0 0-64.576-1.664A45.184 45.184 0 0 0 217.6 532.352l202.24 202.176a45.696 45.696 0 0 0 3.456 3.072l1.152 0.832c0.832 0.64 1.664 1.28 2.56 1.856l1.472 0.832 2.432 1.408 1.6 0.768 2.432 1.152 1.664 0.576 2.496 0.832 1.728 0.448 2.496 0.576h1.792l2.496 0.32h10.624l2.432-0.384 1.92-0.448 2.304-0.576 1.92-0.704 2.24-0.832 1.92-0.896 2.112-1.024 1.856-1.088 1.984-1.216 1.792-1.28 1.92-1.408 1.664-1.472 1.536-1.408 381.12-381.12a45.184 45.184 0 1 0-64-64z" fill="#ffffff" p-id="1028" data-spm-anchor-id="a313x.collections_detail.0.i2.68193a81xeayoq" class=""></path></svg>