<svg t="1699013706738" class="icon" viewBox="0 0 1024 1024" version="1.1" xmlns="http://www.w3.org/2000/svg" p-id="4029" width="200" height="200"><path d="M512 768c-47.392 0-91.664-13.184-129.776-35.712l-46.608 46.608A318.448 318.448 0 0 0 512 832c176.736 0 320-143.264 320-320h-64c0 141.152-114.848 256-256 256zM512 192c-176.736 0-320 143.264-320 320h64c0-141.152 114.848-256 256-256 47.392 0 91.664 13.184 129.776 35.712l46.608-46.608A318.448 318.448 0 0 0 512 192zM704 512h192l-96-128zM320 512H128l96 128z" fill="#7C1DC3" p-id="4030"></path></svg>