<svg width="19" height="18" viewBox="0 0 19 18" fill="none" xmlns="http://www.w3.org/2000/svg">
<g clip-path="url(#clip0_1414_1432)">
<path d="M15.3913 16.4305C15.4368 16.7486 15.3058 17.0422 15.0345 17.232C14.7633 17.4201 14.4338 17.45 14.1316 17.3094L9.72077 15.2598C9.46955 15.1438 9.20559 15.1438 8.95438 15.2598L4.53989 17.3023C4.23771 17.4412 3.90821 17.4131 3.63697 17.2232C3.36573 17.0334 3.23648 16.7398 3.28199 16.4217L3.94098 11.7512C3.97921 11.4857 3.89729 11.2432 3.70433 11.0498L0.318374 7.64141C0.0890027 7.40938 0.0143661 7.09824 0.118129 6.79238C0.221892 6.48652 0.471288 6.27734 0.800781 6.21934L5.62121 5.38086C5.8961 5.3334 6.10908 5.18398 6.24197 4.94844L8.56481 0.8C8.72319 0.516992 9.00899 0.353516 9.34212 0.353516C9.67708 0.353516 9.96106 0.516992 10.1194 0.801758L12.4386 4.95371C12.5715 5.18926 12.7845 5.33867 13.0576 5.38789L17.878 6.23164C18.2075 6.28965 18.4569 6.49883 18.5607 6.80469C18.6644 7.11055 18.5898 7.42168 18.3586 7.65371L14.9726 11.0586C14.7797 11.252 14.6978 11.4945 14.736 11.76L15.3913 16.4305Z" fill="#BBFCA8"/>
<path opacity="0.2" d="M14.7346 11.7598C14.6982 11.4943 14.7783 11.2535 14.9713 11.0584L18.359 7.65352C18.5902 7.42148 18.6649 7.11035 18.5611 6.80449C18.4573 6.49863 18.2079 6.28945 17.8784 6.23145L13.058 5.3877C12.7831 5.34023 12.5701 5.19082 12.4391 4.95352L10.1199 0.799805C9.9615 0.516797 9.67752 0.35332 9.34256 0.351562C9.00761 0.351562 8.72363 0.515039 8.56525 0.798047L6.24241 4.94648C6.10952 5.18203 5.89654 5.33145 5.62166 5.37891L0.801222 6.21914C0.471729 6.27715 0.222333 6.48633 0.11857 6.79219C0.014807 7.09805 0.0894436 7.40918 0.320635 7.64121L3.70659 11.0496C3.89955 11.243 3.98147 11.4855 3.94324 11.751L3.54639 14.5564H15.1296L14.7346 11.7598Z" fill="#65B500"/>
<path opacity="0.2" d="M14.7346 11.7598C14.6982 11.4943 14.7783 11.2535 14.9713 11.0584L18.359 7.65352C18.5902 7.42148 18.6649 7.11035 18.5611 6.80449C18.4573 6.49863 18.2079 6.28945 17.8784 6.23145L13.058 5.3877C12.7831 5.34023 12.5701 5.19082 12.4391 4.95352L10.1199 0.799805C9.9615 0.516797 9.67752 0.35332 9.34256 0.351562C9.00761 0.351562 8.72363 0.515039 8.56525 0.798047L6.24241 4.94648C6.10952 5.18203 5.89654 5.33145 5.62166 5.37891L0.801222 6.21914C0.471729 6.27715 0.222333 6.48633 0.11857 6.79219C0.014807 7.09805 0.0894436 7.40918 0.320635 7.64121L3.70659 11.0496C3.89955 11.243 3.98147 11.4855 3.94324 11.751L3.89045 12.1219H14.7874L14.7346 11.7598Z" fill="#65B500"/>
<path opacity="0.2" d="M18.359 7.65351C18.5902 7.42148 18.6649 7.11035 18.5611 6.80449C18.4573 6.49863 18.2079 6.28945 17.8784 6.23144L13.058 5.38769C12.7831 5.34023 12.5701 5.19082 12.4391 4.95352L10.1199 0.799805C9.9615 0.516797 9.67752 0.35332 9.34256 0.351562C9.00761 0.351562 8.72363 0.515039 8.56525 0.798047L6.24241 4.94648C6.10952 5.18203 5.89654 5.33144 5.62166 5.37891L0.801222 6.21914C0.471729 6.27715 0.222333 6.48633 0.11857 6.79219C0.014807 7.09805 0.0894436 7.40918 0.320635 7.64121L1.54577 8.87519H17.1448L18.359 7.65351Z" fill="#65B500"/>
<path opacity="0.2" d="M17.8801 6.23145L13.0597 5.3877C12.7848 5.34023 12.5718 5.19082 12.4407 4.95352L10.1197 0.799805C9.96135 0.516797 9.67737 0.35332 9.34241 0.351562C9.00746 0.351562 8.72347 0.515039 8.5651 0.798047L6.24226 4.94648C6.10937 5.18203 5.89638 5.33145 5.6215 5.37891L0.80107 6.21914C0.62267 6.25078 0.471577 6.32812 0.349609 6.44062H18.3188C18.2005 6.33516 18.0512 6.26133 17.8801 6.23145Z" fill="#65B500"/>
<path opacity="0.2" d="M10.1197 0.799805C9.96132 0.516797 9.67734 0.35332 9.34238 0.351562C9.00743 0.351562 8.72345 0.515039 8.56507 0.798047L6.77197 4.00254H11.911L10.1197 0.799805Z" fill="#65B500"/>
</g>
<defs>
<clipPath id="clip0_1414_1432">
<rect width="18.6409" height="18" fill="white"/>
</clipPath>
</defs>
</svg>
