<svg width="18" height="18" viewBox="0 0 18 18" fill="none" xmlns="http://www.w3.org/2000/svg">
<g clip-path="url(#clip0_1414_1373)">
<path d="M14.8624 16.4305C14.9063 16.7486 14.7798 17.0422 14.5179 17.232C14.256 17.4201 13.9378 17.45 13.646 17.3094L9.38682 15.2598C9.14424 15.1438 8.88936 15.1438 8.64678 15.2598L4.38408 17.3023C4.09228 17.4412 3.77412 17.4131 3.51221 17.2232C3.25029 17.0334 3.12549 16.7398 3.16943 16.4217L3.80576 11.7512C3.84268 11.4857 3.76357 11.2432 3.57725 11.0498L0.307714 7.64141C0.08623 7.40938 0.0141597 7.09824 0.114355 6.79238C0.21455 6.48652 0.455371 6.27734 0.773535 6.21934L5.42822 5.38086C5.69365 5.3334 5.89932 5.18398 6.02764 4.94844L8.27061 0.8C8.42354 0.516992 8.69951 0.353516 9.02119 0.353516C9.34463 0.353516 9.61885 0.516992 9.77178 0.801758L12.0112 4.95371C12.1396 5.18926 12.3452 5.33867 12.6089 5.38789L17.2636 6.23164C17.5817 6.28965 17.8226 6.49883 17.9228 6.80469C18.0229 7.11055 17.9509 7.42168 17.7276 7.65371L14.4581 11.0586C14.2718 11.252 14.1927 11.4945 14.2296 11.76L14.8624 16.4305Z" fill="#D59DF4"/>
<path opacity="0.2" d="M14.2278 11.7598C14.1926 11.4943 14.27 11.2535 14.4563 11.0584L17.7276 7.65352C17.9508 7.42148 18.0229 7.11035 17.9227 6.80449C17.8225 6.49863 17.5817 6.28945 17.2635 6.23145L12.6088 5.3877C12.3434 5.34023 12.1377 5.19082 12.0112 4.95352L9.77173 0.799805C9.6188 0.516797 9.34458 0.35332 9.02115 0.351562C8.69771 0.351562 8.42349 0.515039 8.27056 0.798047L6.02759 4.94648C5.89927 5.18203 5.69361 5.33145 5.42818 5.37891L0.773489 6.21914C0.455325 6.27715 0.214505 6.48633 0.114309 6.79219C0.0141139 7.09805 0.0861842 7.40918 0.309426 7.64121L3.57896 11.0496C3.76529 11.243 3.84439 11.4855 3.80747 11.751L3.42427 14.5564H14.6092L14.2278 11.7598Z" fill="#B125FF"/>
<path opacity="0.2" d="M14.2278 11.7598C14.1926 11.4943 14.27 11.2535 14.4563 11.0584L17.7276 7.65352C17.9508 7.42148 18.0229 7.11035 17.9227 6.80449C17.8225 6.49863 17.5817 6.28945 17.2635 6.23145L12.6088 5.3877C12.3434 5.34023 12.1377 5.19082 12.0112 4.95352L9.77173 0.799805C9.6188 0.516797 9.34458 0.35332 9.02115 0.351562C8.69771 0.351562 8.42349 0.515039 8.27056 0.798047L6.02759 4.94648C5.89927 5.18203 5.69361 5.33145 5.42818 5.37891L0.773489 6.21914C0.455325 6.27715 0.214505 6.48633 0.114309 6.79219C0.0141139 7.09805 0.0861842 7.40918 0.309426 7.64121L3.57896 11.0496C3.76529 11.243 3.84439 11.4855 3.80747 11.751L3.7565 12.1219H14.2788L14.2278 11.7598Z" fill="#B125FF"/>
<path opacity="0.2" d="M17.7276 7.65351C17.9508 7.42148 18.0229 7.11035 17.9227 6.80449C17.8225 6.49863 17.5817 6.28945 17.2635 6.23144L12.6088 5.38769C12.3434 5.34023 12.1377 5.19082 12.0112 4.95352L9.77173 0.799805C9.6188 0.516797 9.34458 0.35332 9.02115 0.351562C8.69771 0.351562 8.42349 0.515039 8.27056 0.798047L6.02759 4.94648C5.89927 5.18203 5.69361 5.33144 5.42818 5.37891L0.773489 6.21914C0.455325 6.27715 0.214505 6.48633 0.114309 6.79219C0.0141139 7.09805 0.0861842 7.40918 0.309426 7.64121L1.49243 8.87519H16.5551L17.7276 7.65351Z" fill="#B125FF"/>
<path opacity="0.2" d="M17.2651 6.23145L12.6104 5.3877C12.345 5.34023 12.1394 5.19082 12.0128 4.95352L9.77158 0.799805C9.61865 0.516797 9.34443 0.35332 9.021 0.351562C8.69756 0.351562 8.42334 0.515039 8.27041 0.798047L6.02744 4.94648C5.89912 5.18203 5.69346 5.33145 5.42803 5.37891L0.77334 6.21914C0.601074 6.25078 0.455176 6.32812 0.337402 6.44062H17.6888C17.5745 6.33516 17.4304 6.26133 17.2651 6.23145Z" fill="#B125FF"/>
<path opacity="0.2" d="M9.77168 0.799805C9.61875 0.516797 9.34453 0.35332 9.02109 0.351562C8.69766 0.351562 8.42344 0.515039 8.27051 0.798047L6.53906 4.00254H11.5014L9.77168 0.799805Z" fill="#B125FF"/>
</g>
<defs>
<clipPath id="clip0_1414_1373">
<rect width="18" height="18" fill="white"/>
</clipPath>
</defs>
</svg>
