<svg width="19" height="18" viewBox="0 0 19 18" fill="none" xmlns="http://www.w3.org/2000/svg">
<g clip-path="url(#clip0_1414_1398)">
<path d="M15.3916 16.4305C15.4371 16.7486 15.306 17.0422 15.0348 17.232C14.7635 17.4201 14.434 17.45 14.1319 17.3094L9.72101 15.2598C9.4698 15.1438 9.20584 15.1438 8.95462 15.2598L4.54014 17.3023C4.23795 17.4412 3.90846 17.4131 3.63722 17.2232C3.36598 17.0334 3.23673 16.7398 3.28224 16.4217L3.94122 11.7512C3.97945 11.4857 3.89753 11.2432 3.70457 11.0498L0.318618 7.64141C0.0892469 7.40938 0.0146103 7.09824 0.118373 6.79238C0.222136 6.48652 0.471532 6.27734 0.801025 6.21934L5.62146 5.38086C5.89634 5.3334 6.10933 5.18398 6.24222 4.94844L8.56505 0.8C8.72343 0.516992 9.00923 0.353516 9.34237 0.353516C9.67732 0.353516 9.96131 0.516992 10.1197 0.801758L12.4389 4.95371C12.5718 5.18926 12.7848 5.33867 13.0578 5.38789L17.8782 6.23164C18.2077 6.28965 18.4571 6.49883 18.5609 6.80469C18.6647 7.11055 18.59 7.42168 18.3588 7.65371L14.9729 11.0586C14.7799 11.252 14.698 11.4945 14.7362 11.76L15.3916 16.4305Z" fill="#91FBD3"/>
<path opacity="0.2" d="M14.7344 11.7598C14.698 11.4943 14.7781 11.2535 14.971 11.0584L18.3588 7.65352C18.59 7.42148 18.6646 7.11035 18.5609 6.80449C18.4571 6.49863 18.2077 6.28945 17.8782 6.23145L13.0578 5.3877C12.7829 5.34023 12.5699 5.19082 12.4388 4.95352L10.1196 0.799805C9.96126 0.516797 9.67727 0.35332 9.34232 0.351562C9.00737 0.351562 8.72338 0.515039 8.56501 0.798047L6.24217 4.94648C6.10928 5.18203 5.89629 5.33145 5.62141 5.37891L0.800978 6.21914C0.471485 6.27715 0.222089 6.48633 0.118326 6.79219C0.0145628 7.09805 0.0891995 7.40918 0.320391 7.64121L3.70635 11.0496C3.89931 11.243 3.98123 11.4855 3.943 11.751L3.54615 14.5564H15.1294L14.7344 11.7598Z" fill="#00B5B5"/>
<path opacity="0.2" d="M14.7344 11.7598C14.698 11.4943 14.7781 11.2535 14.971 11.0584L18.3588 7.65352C18.59 7.42148 18.6646 7.11035 18.5609 6.80449C18.4571 6.49863 18.2077 6.28945 17.8782 6.23145L13.0578 5.3877C12.7829 5.34023 12.5699 5.19082 12.4388 4.95352L10.1196 0.799805C9.96126 0.516797 9.67727 0.35332 9.34232 0.351562C9.00737 0.351562 8.72338 0.515039 8.56501 0.798047L6.24217 4.94648C6.10928 5.18203 5.89629 5.33145 5.62141 5.37891L0.800978 6.21914C0.471485 6.27715 0.222089 6.48633 0.118326 6.79219C0.0145628 7.09805 0.0891995 7.40918 0.320391 7.64121L3.70635 11.0496C3.89931 11.243 3.98123 11.4855 3.943 11.751L3.89021 12.1219H14.7872L14.7344 11.7598Z" fill="#00B5B5"/>
<path opacity="0.2" d="M18.3588 7.65351C18.59 7.42148 18.6646 7.11035 18.5609 6.80449C18.4571 6.49863 18.2077 6.28945 17.8782 6.23144L13.0578 5.38769C12.7829 5.34023 12.5699 5.19082 12.4388 4.95352L10.1196 0.799805C9.96126 0.516797 9.67727 0.35332 9.34232 0.351562C9.00737 0.351562 8.72338 0.515039 8.56501 0.798047L6.24217 4.94648C6.10928 5.18203 5.89629 5.33144 5.62141 5.37891L0.800978 6.21914C0.471485 6.27715 0.222089 6.48633 0.118326 6.79219C0.0145628 7.09805 0.0891995 7.40918 0.320391 7.64121L1.54552 8.87519H17.1446L18.3588 7.65351Z" fill="#00B5B5"/>
<path opacity="0.2" d="M17.8801 6.23145L13.0597 5.3877C12.7848 5.34023 12.5718 5.19082 12.4407 4.95352L10.1197 0.799805C9.96135 0.516797 9.67737 0.35332 9.34241 0.351562C9.00746 0.351562 8.72347 0.515039 8.5651 0.798047L6.24226 4.94648C6.10937 5.18203 5.89638 5.33145 5.6215 5.37891L0.80107 6.21914C0.62267 6.25078 0.471577 6.32812 0.349609 6.44062H18.3188C18.2005 6.33516 18.0512 6.26133 17.8801 6.23145Z" fill="#00B5B5"/>
<path opacity="0.2" d="M10.1197 0.799805C9.96132 0.516797 9.67734 0.35332 9.34238 0.351562C9.00743 0.351562 8.72345 0.515039 8.56507 0.798047L6.77197 4.00254H11.911L10.1197 0.799805Z" fill="#00B5B5"/>
</g>
<defs>
<clipPath id="clip0_1414_1398">
<rect width="18.6409" height="18" fill="white"/>
</clipPath>
</defs>
</svg>
